<svg xmlns="http://www.w3.org/2000/svg" viewBox="0 0 16 16">
  <svg id="note" fill="currentColor">
    <path d="M1 8.74c0 .983.713 1.825 1.69 1.943.764.092 1.534.164 2.31.216v2.351a.75.75 0 0 0 1.28.53l2.51-2.51c.182-.181.427-.286.684-.294a44.298 44.298 0 0 0 3.837-.293C14.287 10.565 15 9.723 15 8.74V4.26c0-.983-.713-1.825-1.69-1.943a44.447 44.447 0 0 0-10.62 0C1.712 2.435 1 3.277 1 4.26v4.482Z" />
  </svg>
  <symbol id="article" fill="currentColor">
    <path fill-rule="evenodd" d="M4 2a1.5 1.5 0 0 0-1.5 1.5v9A1.5 1.5 0 0 0 4 14h8a1.5 1.5 0 0 0 1.5-1.5V6.621a1.5 1.5 0 0 0-.44-1.06L9.94 2.439A1.5 1.5 0 0 0 8.878 2H4Zm1 5.75A.75.75 0 0 1 5.75 7h4.5a.75.75 0 0 1 0 1.5h-4.5A.75.75 0 0 1 5 7.75Zm0 3a.75.75 0 0 1 .75-.75h4.5a.75.75 0 0 1 0 1.5h-4.5a.75.75 0 0 1-.75-.75Z" clip-rule="evenodd" />
  </symbol>
  <symbol id="clock" fill="currentColor">
    <path fill-rule="evenodd" d="M1 8a7 7 0 1 1 14 0A7 7 0 0 1 1 8Zm7.75-4.25a.75.75 0 0 0-1.5 0V8c0 .414.336.75.75.75h3.25a.75.75 0 0 0 0-1.5h-2.5v-3.5Z" clip-rule="evenodd" />
  </symbol>
</svg>
